<svg width="54" height="48" viewBox="0 0 54 48" fill="none" xmlns="http://www.w3.org/2000/svg">
<path opacity="0.2" d="M36 20L10.585 45.415C10.21 45.7898 9.70149 46.0003 9.17128 46.0003C8.64107 46.0003 8.13257 45.7898 7.75753 45.415L2.58503 40.25C2.21024 39.875 1.99971 39.3665 1.99971 38.8363C1.99971 38.306 2.21024 37.7975 2.58503 37.4225L28 12L36 20Z" fill="#0FF1F6"/>
<path d="M54 30C54 30.5304 53.7892 31.0391 53.4142 31.4142C53.0391 31.7893 52.5304 32 52 32H48V36C48 36.5304 47.7892 37.0391 47.4142 37.4142C47.0391 37.7893 46.5304 38 45.9999 38C45.4695 38 44.9608 37.7893 44.5857 37.4142C44.2107 37.0391 43.9999 36.5304 43.9999 36V32H39.9999C39.4695 32 38.9608 31.7893 38.5857 31.4142C38.2107 31.0391 37.9999 30.5304 37.9999 30C37.9999 29.4696 38.2107 28.9609 38.5857 28.5858C38.9608 28.2107 39.4695 28 39.9999 28H43.9999V24C43.9999 23.4696 44.2107 22.9609 44.5857 22.5858C44.9608 22.2107 45.4695 22 45.9999 22C46.5304 22 47.0391 22.2107 47.4142 22.5858C47.7892 22.9609 48 23.4696 48 24V28H52C52.5304 28 53.0391 28.2107 53.4142 28.5858C53.7892 28.9609 54 29.4696 54 30ZM5.99994 10H9.99994V14C9.99994 14.5304 10.2107 15.0391 10.5857 15.4142C10.9608 15.7893 11.4695 16 11.9999 16C12.5304 16 13.0391 15.7893 13.4142 15.4142C13.7892 15.0391 13.9999 14.5304 13.9999 14V10H17.9999C18.5304 10 19.0391 9.78929 19.4142 9.41421C19.7892 9.03914 19.9999 8.53043 19.9999 8C19.9999 7.46957 19.7892 6.96086 19.4142 6.58579C19.0391 6.21071 18.5304 6 17.9999 6H13.9999V2C13.9999 1.46957 13.7892 0.96086 13.4142 0.585787C13.0391 0.210714 12.5304 0 11.9999 0C11.4695 0 10.9608 0.210714 10.5857 0.585787C10.2107 0.96086 9.99994 1.46957 9.99994 2V6H5.99994C5.46951 6 4.9608 6.21071 4.58573 6.58579C4.21066 6.96086 3.99994 7.46957 3.99994 8C3.99994 8.53043 4.21066 9.03914 4.58573 9.41421C4.9608 9.78929 5.46951 10 5.99994 10ZM37.9999 40H35.9999V38C35.9999 37.4696 35.7892 36.9609 35.4142 36.5858C35.0391 36.2107 34.5304 36 33.9999 36C33.4695 36 32.9608 36.2107 32.5857 36.5858C32.2107 36.9609 31.9999 37.4696 31.9999 38V40H29.9999C29.4695 40 28.9608 40.2107 28.5857 40.5858C28.2107 40.9609 27.9999 41.4696 27.9999 42C27.9999 42.5304 28.2107 43.0391 28.5857 43.4142C28.9608 43.7893 29.4695 44 29.9999 44H31.9999V46C31.9999 46.5304 32.2107 47.0391 32.5857 47.4142C32.9608 47.7893 33.4695 48 33.9999 48C34.5304 48 35.0391 47.7893 35.4142 47.4142C35.7892 47.0391 35.9999 46.5304 35.9999 46V44H37.9999C38.5304 44 39.0391 43.7893 39.4142 43.4142C39.7892 43.0391 39.9999 42.5304 39.9999 42C39.9999 41.4696 39.7892 40.9609 39.4142 40.5858C39.0391 40.2107 38.5304 40 37.9999 40ZM46.8274 12L11.9999 46.8275C11.2499 47.5771 10.2329 47.9981 9.17244 47.9981C8.11203 47.9981 7.09501 47.5771 6.34494 46.8275L1.16994 41.6575C0.798412 41.2861 0.503692 40.8451 0.302616 40.3597C0.10154 39.8743 -0.00195312 39.3541 -0.00195312 38.8288C-0.00195312 38.3034 0.10154 37.7832 0.302616 37.2978C0.503692 36.8124 0.798412 36.3714 1.16994 36L35.9999 1.1725C36.3714 0.800969 36.8124 0.50625 37.2978 0.305174C37.7831 0.104098 38.3033 0.00060463 38.8287 0.00060463C39.3541 0.00060463 39.8743 0.104098 40.3596 0.305174C40.845 0.50625 41.286 0.800969 41.6574 1.1725L46.8274 6.3425C47.199 6.71395 47.4937 7.15494 47.6948 7.64031C47.8959 8.12567 47.9993 8.64589 47.9993 9.17125C47.9993 9.69661 47.8959 10.2168 47.6948 10.7022C47.4937 11.1876 47.199 11.6286 46.8274 12ZM33.1699 20L27.9999 14.8275L3.99994 38.8275L9.16994 44L33.1699 20ZM43.9999 9.1725L38.8274 4L30.8274 12L35.9999 17.1725L43.9999 9.1725Z" fill="#0FF1F6"/>
</svg>
